# xmcd CD database file
#
# Track frame offsets:
#	150
#	17175
#	38080
#	55470
#
# Disc length: 964 seconds
#
# Revision: 1
# Processed by: cddbd v1.5.1PL2 Copyright (c) Steve Scherf et al.
# Submitted via: CDex 1.70beta1
#
DISCID=2e03c204
DTITLE=北原愛子 - TANGO
DYEAR=2005
DGENRE=Pop
TTITLE0=TANGO
TTITLE1=シアワセニ☆
TTITLE2=永遠へとかかる虹の橋
TTITLE3=TANGO-instrumental-
EXTD=YEAR: 2005
EXTT0=
EXTT1=
EXTT2=
EXTT3=
PLAYORDER=
